<?xml version="1.0" encoding="UTF-8" standalone="no"?>
<!DOCTYPE svg PUBLIC "-//W3C//DTD SVG 1.1//EN" "http://www.w3.org/Graphics/SVG/1.1/DTD/svg11.dtd">
<svg version="1.1" xmlns="http://www.w3.org/2000/svg" xmlns:xlink="http://www.w3.org/1999/xlink" preserveAspectRatio="xMidYMid meet" viewBox="0 0 640 640" width="640" height="640"><defs><path d="M496.86 563.09C485.32 527.94 478.91 508.42 477.63 504.51C480.48 506.85 642.6 637.58 642.6 637.58C642.6 580.4 642.6 122.93 642.6 65.75C640.68 30.21 608.15 0 567.83 0C520.48 0.01 141.68 0.07 94.33 0.08C54.03 0.08 21.33 30.34 21.33 65.88C21.33 109.03 21.33 454.17 21.33 497.31C21.33 534.8 53.98 563.09 94.19 563.09C94.19 563.09 228.41 563.09 496.86 563.09ZM392.06 150.97L391.13 151.29L391.47 150.97L392.06 150.97ZM276.31 150.95C276.7 151.31 279.79 154.18 280.18 154.53C216.84 168.75 188.12 195.37 188.12 195.37C191.05 194.78 318.95 125.36 473.93 197.12C473.93 197.12 445.15 172.23 385.71 156.29C386.23 155.8 390.44 151.91 390.96 151.43C399.18 151.45 442.67 152.89 489.21 184.9C489.21 184.9 541.28 268.58 541.28 371.39C539.56 369.43 508.97 415.65 430.27 417.24C430.27 417.24 416.94 403.06 407.45 390.68C453.48 378.25 470.71 353.38 470.71 353.38C381.11 406.46 302.57 398.17 208.62 362.31C207.74 362.31 207.35 361.93 206.9 361.51C206.9 361.49 206.9 361.37 206.9 361.35C206.44 360.95 206.05 360.55 205.17 360.55C205 360.55 203.65 360.55 203.48 360.55C197.72 356.99 193.88 355.24 193.88 355.24C193.88 355.24 211.08 380.1 255.27 392.54C243.66 405 232.17 419.16 232.17 419.16C153.49 417.4 124.8 371.18 124.8 371.18C124.8 268.21 176.57 184.69 176.57 184.69C228.33 149.25 256.36 157.7 276.31 150.95Z" id="d5hgReFmM7"></path><path d="M433.58 303.67C433.58 284.15 417.31 268.21 397.15 268.21C397.15 268.22 397.15 268.28 397.15 268.29C377.15 268.29 360.77 284.18 360.72 303.83C360.72 323.33 377.07 339.27 397.15 339.27C417.22 339.27 433.58 323.33 433.58 303.67Z" id="d69pIpLLL"></path><path d="M303.16 303.67C303.16 284.15 286.93 268.21 266.85 268.21C266.84 268.22 266.75 268.28 266.74 268.29C246.66 268.29 230.31 284.18 230.31 303.83C230.31 323.33 246.66 339.27 266.74 339.27C286.81 339.27 303.16 323.33 303.16 303.67Z" id="a8PyKkE06"></path></defs><g><g><g><use xlink:href="#d5hgReFmM7" opacity="1" fill="#ffffff" fill-opacity="1"></use><g><use xlink:href="#d5hgReFmM7" opacity="1" fill-opacity="0" stroke="#000000" stroke-width="1" stroke-opacity="0"></use></g></g><g><use xlink:href="#d69pIpLLL" opacity="1" fill="#ffffff" fill-opacity="1"></use><g><use xlink:href="#d69pIpLLL" opacity="1" fill-opacity="0" stroke="#000000" stroke-width="1" stroke-opacity="0"></use></g></g><g><use xlink:href="#a8PyKkE06" opacity="1" fill="#ffffff" fill-opacity="1"></use><g><use xlink:href="#a8PyKkE06" opacity="1" fill-opacity="0" stroke="#000000" stroke-width="1" stroke-opacity="0"></use></g></g></g></g></svg>