<?xml version="1.0" encoding="UTF-8" standalone="no"?>
<!DOCTYPE svg PUBLIC "-//W3C//DTD SVG 1.1//EN" "http://www.w3.org/Graphics/SVG/1.1/DTD/svg11.dtd">
<svg version="1.1" xmlns="http://www.w3.org/2000/svg" xmlns:xlink="http://www.w3.org/1999/xlink" preserveAspectRatio="xMidYMid meet" viewBox="0 0 640 640" width="40" height="40"><defs><path d="M221.76 0C42.45 0 0 42.45 0 221.76C0 241.41 0 398.59 0 418.24C0 597.55 42.45 640 221.76 640C241.41 640 398.59 640 418.24 640C597.55 640 640 597.55 640 418.24C640 398.59 640 241.41 640 221.76C640 42.45 597.09 0 418.24 0C378.94 0 241.41 0 221.76 0ZM470.19 456.61C452.59 456.61 447.15 442.61 415.52 410.56C387.97 383.89 375.79 380.29 369.01 380.29C359.52 380.29 356.8 383.01 356.8 396.11C356.8 400.31 356.8 433.91 356.8 438.11C356.8 449.41 353.2 456.19 323.39 456.19C274.16 456.19 219.49 426.37 181.12 370.8C123.31 289.52 107.47 228.53 107.47 215.89C107.47 209.12 110.19 202.8 123.28 202.8C127.93 202.8 165.14 202.8 169.79 202.8C181.52 202.8 186.05 208.21 190.59 220.85C213.6 287.25 252 345.52 267.81 345.52C273.68 345.52 276.4 342.8 276.4 327.92C276.4 321.05 276.4 266.1 276.4 259.23C274.59 227.6 257.87 224.91 257.87 213.63C257.87 208.19 262.4 202.77 269.6 202.77C276.92 202.77 335.46 202.77 342.77 202.77C352.72 202.77 356.32 208.19 356.32 219.92C356.32 229.18 356.32 303.27 356.32 312.53C356.32 322.45 360.85 326.08 363.55 326.08C369.41 326.08 374.4 322.45 385.23 311.63C418.67 274.13 442.59 216.32 442.59 216.32C445.76 209.55 451.17 203.23 462.93 203.23C467.58 203.23 504.79 203.23 509.44 203.23C523.44 203.23 526.61 210.43 523.44 220.37C517.57 247.49 460.67 327.87 460.67 327.87C455.71 336 453.89 339.6 460.67 348.67C465.63 355.44 481.89 369.44 492.75 382.08C512.61 404.67 527.95 423.63 532.03 436.75C536.56 449.81 529.76 456.59 516.67 456.59C516.67 456.59 474.84 456.61 470.19 456.61Z" id="hKTRXUmIi"></path></defs><g><g><g><use xlink:href="#hKTRXUmIi" opacity="1" fill="#ffffff" fill-opacity="1"></use><g><use xlink:href="#hKTRXUmIi" opacity="1" fill-opacity="0" stroke="#000000" stroke-width="1" stroke-opacity="0"></use></g></g></g></g></svg>