<?xml version="1.0" encoding="UTF-8" standalone="no"?>
<!DOCTYPE svg PUBLIC "-//W3C//DTD SVG 1.1//EN" "http://www.w3.org/Graphics/SVG/1.1/DTD/svg11.dtd">
<svg version="1.1" xmlns="http://www.w3.org/2000/svg" xmlns:xlink="http://www.w3.org/1999/xlink" preserveAspectRatio="xMidYMid meet" viewBox="0 0 640 640" width="40" height="40"><defs><path d="M0 320C0 496.73 143.27 640 320 640C496.73 640 640 496.73 640 320C640 143.27 496.73 0 320 0C319.5 0 319 0 318.51 0C142.36 0.82 0 143.85 0 320ZM463.23 196.37C465.78 198.59 467.41 201.68 467.79 205.04C468.21 207.52 468.75 213.2 468.32 217.63C463.52 268.24 442.67 391.01 432.05 447.68C427.57 471.68 418.75 479.71 410.19 480.48C391.63 482.21 377.52 468.21 359.52 456.43C331.36 437.95 315.44 426.45 288.11 408.43C256.51 387.63 276.99 376.16 294.99 357.49C299.71 352.59 381.57 278.11 383.17 271.36C383.36 270.51 383.55 267.36 381.68 265.71C379.81 264.05 377.04 264.61 375.04 265.07C372.21 265.71 327.23 295.47 240.08 354.27C227.28 363.07 215.73 367.33 205.36 367.07C193.95 366.85 171.97 360.64 155.63 355.33C135.57 348.8 119.65 345.36 121.04 334.29C121.76 328.53 129.71 322.64 144.85 316.61C238.13 275.97 300.32 249.17 331.47 236.24C420.32 199.28 438.8 192.85 450.83 192.64C453.49 192.59 459.39 193.25 463.23 196.37Z" id="a3aIRCKS3"></path></defs><g><g><g><use xlink:href="#a3aIRCKS3" opacity="1" fill="#ffffff" fill-opacity="1"></use><g><use xlink:href="#a3aIRCKS3" opacity="1" fill-opacity="0" stroke="#000000" stroke-width="1" stroke-opacity="0"></use></g></g></g></g></svg>