<?xml version="1.0" encoding="UTF-8" standalone="no"?>
<!DOCTYPE svg PUBLIC "-//W3C//DTD SVG 1.1//EN" "http://www.w3.org/Graphics/SVG/1.1/DTD/svg11.dtd">
<svg version="1.1" xmlns="http://www.w3.org/2000/svg" xmlns:xlink="http://www.w3.org/1999/xlink" preserveAspectRatio="xMidYMid meet" viewBox="0 0 640 640" width="40" height="40"><defs><path d="M570.03 108C520.13 94.53 320 94.53 320 94.53C320 94.53 119.87 94.53 69.95 108C42.29 115.55 20.75 137.25 13.39 164.96C0 215.2 0 320 0 320C0 320 0 424.8 13.39 475.04C20.74 502.76 42.31 524.46 69.97 532C119.87 545.47 320 545.47 320 545.47C320 545.47 520.13 545.47 570.05 532C597.72 524.46 619.29 502.76 626.64 475.04C640 424.8 640 320 640 320C640 320 640 215.2 626.61 164.96C619.26 137.24 597.69 115.54 570.03 108ZM254.53 224.85L421.81 320L254.53 415.15L254.53 224.85Z" id="cizC5yNJx"></path></defs><g><g><g><use xlink:href="#cizC5yNJx" opacity="1" fill="#ffffff" fill-opacity="1"></use><g><use xlink:href="#cizC5yNJx" opacity="1" fill-opacity="0" stroke="#000000" stroke-width="1" stroke-opacity="0"></use></g></g></g></g></svg>